<svg width="73" height="73" viewBox="0 0 73 73" fill="none" xmlns="http://www.w3.org/2000/svg">
<path d="M12.6988 15.1175C12.514 14.9571 12.2829 14.8379 12.0339 15.1175L11.7923 15.3874L12.5394 16.0351L12.781 15.7578C13.0314 15.4902 12.8836 15.2778 12.6988 15.1175Z" fill="white"/>
<path d="M30.411 66.4435C29.9152 66.3453 29.6856 66.7468 29.5793 67.3419C29.473 67.937 29.5068 68.386 30.0025 68.4838C30.4983 68.5815 30.7085 68.1851 30.8291 67.5899C30.9497 66.9948 30.8947 66.5412 30.411 66.4435Z" fill="white"/>
<path d="M16.698 11.3657C16.6676 11.3123 16.625 11.2666 16.5736 11.2323C16.5222 11.1981 16.4634 11.1761 16.4019 11.1682C16.3404 11.1603 16.2779 11.1667 16.2194 11.1869C16.1608 11.2071 16.1078 11.2405 16.0646 11.2844L15.7874 11.5041L16.3649 12.2212L16.6477 11.9965C16.7018 11.9649 16.7474 11.9208 16.7806 11.8679C16.8137 11.8151 16.8334 11.7551 16.8379 11.6931C16.8425 11.6311 16.8317 11.5689 16.8067 11.5119C16.7816 11.4549 16.7429 11.4047 16.6939 11.3657H16.698Z" fill="white"/>
<path d="M33.0916 24.7643C34.4574 24.7643 34.815 23.6462 34.815 22.1358C34.815 20.6253 34.4574 19.5072 33.0916 19.5072C31.7259 19.5072 31.378 20.623 31.378 22.1335C31.378 23.6439 31.7453 24.7643 33.0916 24.7643Z" fill="white"/>
<path d="M40.0534 67.3753C40.0572 67.308 40.0453 67.2407 40.0187 67.1787C39.992 67.1166 39.9514 67.0614 39.8998 67.0173C39.8482 66.9732 39.7871 66.9414 39.7212 66.9243C39.6552 66.9071 39.5862 66.9052 39.5193 66.9185L39.1275 66.9569L39.2241 67.9581L39.6251 67.9197C40.0266 67.8795 40.0802 67.6311 40.0534 67.3753Z" fill="white"/>
<path d="M52.2315 8.67059C52.2698 8.62265 52.2963 8.56655 52.3089 8.50674C52.3216 8.44692 52.3199 8.38503 52.3042 8.32593C52.2885 8.26684 52.2591 8.21217 52.2183 8.16625C52.1775 8.12032 52.1265 8.08439 52.0693 8.0613L51.7574 7.89185L51.3153 8.68978L51.6345 8.86197C51.684 8.89781 51.7413 8.92152 51.8018 8.93115C51.8623 8.94078 51.9243 8.93606 51.9826 8.91737C52.0409 8.89868 52.0938 8.86655 52.1371 8.82365C52.1804 8.78074 52.2127 8.72828 52.2315 8.67059V8.67059Z" fill="white"/>
<path d="M27.716 6.75622L26.9592 5.56641L26.9952 6.97637L27.716 6.75622Z" fill="white"/>
<path d="M56.0335 27.5312C54.6871 27.5312 54.3101 28.6494 54.3101 30.1598C54.3101 31.6703 54.6871 32.7884 56.0335 32.7884C57.3798 32.7884 57.7568 31.6675 57.7568 30.1598C57.7568 28.6521 57.4043 27.5312 56.0335 27.5312Z" fill="white"/>
<path d="M21.9725 9.60916C22.3786 9.39403 22.2918 8.99986 22.028 8.51937C21.7641 8.03887 21.4768 7.7429 21.0609 7.95803C20.6451 8.17316 20.7444 8.57464 21.0078 9.05741C21.2712 9.54019 21.5738 9.82474 21.9725 9.60916Z" fill="white"/>
<path d="M36.5 0.197021C29.281 0.197021 22.2241 2.31324 16.2217 6.27806C10.2193 10.2429 5.54101 15.8782 2.77841 22.4715C0.0158148 29.0648 -0.707007 36.3198 0.701354 43.3192C2.10971 50.3185 5.586 56.7479 10.6906 61.7941C15.7952 66.8404 22.2989 70.277 29.3792 71.6692C36.4595 73.0615 43.7984 72.3469 50.4679 69.6159C57.1374 66.8849 62.838 62.2601 66.8486 56.3263C70.8593 50.3925 73 43.4163 73 36.2798C73 31.5413 72.0559 26.8493 70.2216 22.4715C68.3873 18.0937 65.6987 14.116 62.3094 10.7654C58.9201 7.41482 54.8963 4.75699 50.4679 2.94366C46.0396 1.13033 41.2932 0.197021 36.5 0.197021V0.197021ZM64.2982 26.9366H65V33.3881H64.1735L61.1241 27.9757V33.3881H60.4311V26.9362H61.289L64.307 32.2892L64.2982 26.9366ZM61.4216 16.2411C61.5006 16.1655 61.596 16.109 61.7006 16.0757C61.8052 16.0425 61.9162 16.0335 62.0248 16.0495C62.1335 16.0654 62.237 16.1058 62.3273 16.1677C62.4177 16.2295 62.4924 16.311 62.5457 16.4059C62.6293 16.4863 62.6926 16.5848 62.7308 16.6936C62.769 16.8024 62.7809 16.9186 62.7657 17.0327C62.7504 17.1469 62.7084 17.256 62.6429 17.3513C62.5775 17.4466 62.4904 17.5255 62.3887 17.5816L62.147 17.2783C62.2053 17.2483 62.2556 17.2051 62.2939 17.1522C62.3321 17.0993 62.3572 17.0383 62.3671 16.974C62.377 16.9098 62.3714 16.8441 62.3509 16.7824C62.3303 16.7207 62.2953 16.6646 62.2487 16.6188C62.0722 16.3941 61.879 16.3562 61.6711 16.5302C61.2604 16.8645 62.3406 17.651 61.6083 18.2028C61.5262 18.2743 61.4291 18.3269 61.3239 18.3568C61.2187 18.3867 61.1082 18.3931 61.0002 18.3756C60.8922 18.3581 60.7895 18.3172 60.6995 18.2557C60.6094 18.1942 60.5343 18.1137 60.4796 18.0201C60.388 17.9349 60.3181 17.8296 60.2756 17.7126C60.2331 17.5956 60.2192 17.4704 60.235 17.3471C60.2508 17.2238 60.2959 17.106 60.3666 17.0032C60.4373 16.9005 60.5316 16.8157 60.6417 16.7558L60.8834 17.0618C60.8222 17.0966 60.7698 17.1446 60.7301 17.2023C60.6904 17.26 60.6645 17.3259 60.6543 17.3949C60.644 17.4639 60.6498 17.5343 60.671 17.6009C60.6923 17.6674 60.7286 17.7283 60.7771 17.7789C60.9827 18.0415 61.1782 18.0443 61.3477 17.9159C61.8666 17.5382 60.7254 16.78 61.4216 16.2406V16.2411ZM61.18 14.7904L60.9116 15.0293L60.201 14.272L59.6738 14.7498L60.3169 15.4381L60.0536 15.677L59.4035 15.0129L58.838 15.529L59.5463 16.289L59.2778 16.5279L58.3108 15.4861L60.2051 13.7559L61.18 14.7904ZM58.4725 30.1722C58.4725 31.8854 58.023 33.4484 56.0552 33.4484C54.0875 33.4484 53.6379 31.8854 53.6379 30.1626C53.6379 28.4398 54.0972 26.8768 56.0552 26.8768C58.0133 26.8768 58.4651 28.437 58.4651 30.1722H58.4725ZM58.6056 12.1856C58.7068 12.2677 58.7883 12.3709 58.8442 12.4878C58.9002 12.6047 58.9292 12.7325 58.9292 12.8618C58.9292 12.9912 58.9002 13.1189 58.8442 13.2359C58.7883 13.3528 58.7068 13.456 58.6056 13.538L58.3108 13.2727C58.5525 12.9694 58.5959 12.6707 58.3543 12.4528C58.0378 12.1683 57.6871 12.3861 57.3175 12.7899C56.9479 13.1937 56.763 13.5618 57.0758 13.8459C57.3175 14.0683 57.6303 14.0062 57.9024 13.7144L58.2092 13.9797C58.1376 14.0895 58.0418 14.1819 57.929 14.25C57.8162 14.3182 57.6893 14.3602 57.5578 14.3731C57.4263 14.3859 57.2935 14.3693 57.1694 14.3243C57.0454 14.2794 56.9331 14.2073 56.8411 14.1135C56.2682 13.5997 56.5755 13.0288 57.0347 12.5291C57.494 12.0294 58.0258 11.6663 58.5987 12.1852L58.6056 12.1856ZM56.8749 10.7697L55.2869 12.7794L54.9773 12.5405L56.5653 10.5308L56.8749 10.7697ZM53.9595 8.71712L54.3004 8.956L53.5945 11.0543L55.2864 9.62056L55.6297 9.85943L53.546 11.5466L53.1592 11.2932L53.9595 8.71712ZM52.2361 7.7374C52.345 7.77514 52.4435 7.83765 52.5235 7.9199C52.6034 8.00215 52.6628 8.10183 52.6966 8.21091C52.7305 8.31999 52.7379 8.4354 52.7184 8.54785C52.6988 8.66029 52.6528 8.76662 52.584 8.85825C52.5475 8.95294 52.4894 9.03808 52.4144 9.10714C52.3393 9.1762 52.2493 9.22734 52.1511 9.25662C52.053 9.28591 51.9493 9.29256 51.8482 9.27608C51.747 9.2596 51.651 9.22041 51.5676 9.16153L51.7986 10.4066L51.3634 10.1677L51.2012 8.91809L50.7054 9.81422L50.3621 9.62787L51.5999 7.38982L52.2361 7.7374ZM48.7829 27.5911V26.9362H52.602V27.5911H51.0312V33.3858H50.3594V27.5911H48.7829ZM49.0971 6.24751L50.4074 6.81615L50.26 7.1482L49.305 6.73257L49.0246 7.38251L49.8923 7.7575L49.7472 8.0827L48.8795 7.70772L48.5699 8.40288L49.537 8.81852L49.3896 9.15057L48.0576 8.58192L49.0971 6.24751ZM45.6412 6.78966L46.0108 6.91389C45.9771 6.9775 45.9588 7.04802 45.9575 7.11983C45.9562 7.19163 45.9719 7.26275 46.0033 7.32751C46.0347 7.39227 46.081 7.44888 46.1384 7.49285C46.1959 7.53681 46.2629 7.56691 46.3342 7.58074C46.6507 7.68579 46.8175 7.58074 46.8831 7.38023C47.0933 6.76591 45.7206 6.76134 45.996 5.92961C46.0191 5.82373 46.0666 5.72453 46.1348 5.63971C46.2029 5.5549 46.2899 5.48674 46.389 5.44054C46.4881 5.39434 46.5967 5.37132 46.7062 5.37329C46.8158 5.37525 46.9234 5.40213 47.0208 5.45186C47.1352 5.47294 47.2432 5.52008 47.336 5.58955C47.4288 5.65901 47.504 5.74889 47.5556 5.85206C47.6072 5.95524 47.6338 6.06887 47.6333 6.18397C47.6327 6.29906 47.6051 6.41245 47.5526 6.51516L47.1829 6.39321C47.2152 6.33617 47.2332 6.27235 47.2355 6.20706C47.2378 6.14176 47.2243 6.07687 47.1962 6.01775C47.168 5.95863 47.126 5.907 47.0737 5.86713C47.0213 5.82726 46.9601 5.80029 46.8951 5.78848C46.6244 5.69713 46.4432 5.77158 46.3656 6.02736C46.2108 6.52977 47.5526 6.59143 47.255 7.46107C47.2266 7.56535 47.1754 7.66222 47.1051 7.74486C47.0347 7.8275 46.9469 7.89392 46.8479 7.93945C46.7488 7.98498 46.6409 8.00851 46.5316 8.00841C46.4223 8.0083 46.3144 7.98455 46.2155 7.93883C46.0904 7.91843 45.9721 7.86889 45.8703 7.79431C45.7685 7.71973 45.6861 7.62225 45.63 7.50994C45.5739 7.39763 45.5456 7.27372 45.5476 7.14847C45.5495 7.02321 45.5816 6.90022 45.6412 6.78966V6.78966ZM43.8171 18.9098H44.6709L47.6875 24.2601V18.9098H48.3907V25.3618H47.5641L44.5106 19.9466V25.359H43.8074L43.8171 18.9098ZM45.2096 26.8768C46.8096 26.8768 47.4736 27.9237 47.4736 29.1445H46.7685C46.7394 28.1552 46.2603 27.5318 45.2092 27.5318C43.904 27.5318 43.5584 28.6499 43.5584 30.1603C43.5584 31.6708 43.9645 32.7889 45.2092 32.7889C46.2899 32.7889 46.7902 31.9622 46.8092 30.5189H44.9745V29.8538H47.5027V33.3808H47.0531L46.9201 32.2029C46.5551 33.0296 46.0547 33.4429 45.1676 33.4429C43.374 33.4429 42.8639 31.88 42.8639 30.1571C42.8639 28.4343 43.2918 26.8763 45.199 26.8763L45.2096 26.8768ZM41.9727 4.22596L43.3481 4.47945L43.2807 4.83571L42.285 4.65301L42.1543 5.35092L43.0783 5.52311L43.0109 5.87206L42.0868 5.6953L41.8789 6.79925L41.4968 6.72983L41.9727 4.22596ZM39.2532 3.88888L40.6772 4.03458L40.6384 4.39541L39.5965 4.29036L39.5216 4.99603L40.4642 5.09149L40.4328 5.45688L39.4902 5.36142L39.4103 6.11642L40.4471 6.22376L40.411 6.58458L38.988 6.43614L39.2532 3.88888ZM40.9937 21.7416V18.9098H41.6751V25.3618H40.9937V22.3865H38.1564V25.359H37.4633V18.9075H38.1564V21.7393L40.9937 21.7416ZM40.9068 26.9366V33.3881H40.0802L37.0309 27.9757V33.3881H36.3286V26.9362H37.1796L40.1985 32.2892V26.9362L40.9068 26.9366ZM36.1378 3.78109H36.5296L36.5125 4.85398L37.4365 4.86814L37.4559 3.79525H37.845L37.8038 6.34479H37.412L37.4314 5.22166L36.5032 5.21435L36.4861 6.33748H36.0943L36.1378 3.78109ZM33.8803 3.86696C34.0101 3.84921 34.1423 3.8604 34.2671 3.89972C34.3919 3.93903 34.5063 4.00547 34.6018 4.09417C34.6972 4.18286 34.7714 4.29156 34.8189 4.41229C34.8663 4.53301 34.8858 4.66271 34.876 4.79186L34.4796 4.82292C34.4287 4.4356 34.2379 4.20403 33.9067 4.22915C33.4811 4.2625 33.3984 4.66398 33.4446 5.20659C33.4908 5.7492 33.6331 6.13606 34.0587 6.10272C34.3922 6.07623 34.5567 5.81132 34.5276 5.4176L34.9263 5.38654C34.9725 5.96707 34.7452 6.41148 34.0878 6.46446C33.3167 6.52429 33.1064 5.90997 33.051 5.23856C32.9955 4.56715 33.1092 3.91948 33.8803 3.85737V3.86696ZM33.0916 18.8573C35.0691 18.8573 35.509 20.4203 35.509 22.155C35.509 23.8897 35.0594 25.4289 33.0916 25.4289C31.1239 25.4289 30.6743 23.8687 30.6743 22.1431C30.6743 20.4175 31.1364 18.8477 33.0916 18.8477V18.8573ZM34.1963 26.9462V33.3977H33.5033V26.9458L34.1963 26.9462ZM31.8109 32.7501V33.3954H28.9972V26.9435H29.6861V32.7478L31.8109 32.7501ZM29.3451 4.55801L29.8284 6.70882L30.5731 6.54896L30.648 6.89563L29.5239 7.1345L28.9621 4.63931L29.3451 4.55801ZM27.0946 5.13305L28.5643 7.35557L28.1702 7.47249L27.8929 7.03539L27.0082 7.30532V7.82144L26.6214 7.93837L26.59 5.28104L27.0946 5.13305ZM26.5438 24.7141C27.7959 24.8863 28.0523 24.4917 28.0523 23.4741V18.9098H28.7366V23.4357C28.7366 24.9055 28.4007 25.5865 26.5346 25.3472L26.5438 24.7141ZM27.3029 32.7409V33.3863H24.4915V26.9339H25.1845V32.7382L27.3029 32.7409ZM23.457 6.44071L25.1055 7.84337L24.3663 6.06801L24.7239 5.92002L25.715 8.27362L25.2848 8.45266L23.6164 7.04772L24.3658 8.83268L24.0055 8.98066L23.0144 6.62706L23.457 6.44071ZM20.8974 7.63555C21.608 7.25554 22.0525 7.73375 22.3759 8.33071C22.6993 8.92768 22.8592 9.54931 22.1486 9.92703C21.438 10.3048 20.9834 9.83568 20.6701 9.24192C20.3568 8.64815 20.1937 8.01602 20.8974 7.64103V7.63555ZM22.369 29.7634V30.4088H19.7899V32.7268H22.6134V33.3817H19.096V26.9293H22.6129V27.5843H19.7899V29.7607L22.369 29.7634ZM18.1872 9.25562C18.2748 9.18004 18.3789 9.12548 18.4914 9.09621C18.6039 9.06693 18.7217 9.06373 18.8356 9.08685C18.9496 9.10997 19.0566 9.15879 19.1483 9.22949C19.24 9.3002 19.314 9.39089 19.3644 9.4945L19.0502 9.70003C19.0238 9.64044 18.9834 9.58788 18.9325 9.54662C18.8816 9.50535 18.8215 9.47656 18.7572 9.46258C18.6929 9.44861 18.6262 9.44984 18.5624 9.46618C18.4987 9.48252 18.4398 9.5135 18.3905 9.55661C18.1488 9.71419 18.1003 9.90328 18.2648 10.1207C18.5744 10.5482 19.437 9.53286 19.9567 10.2952C20.0236 10.3807 20.0705 10.4799 20.0939 10.5855C20.1174 10.6912 20.1168 10.8006 20.0923 10.906C20.0678 11.0114 20.0199 11.1101 19.9521 11.195C19.8843 11.2798 19.7983 11.3488 19.7003 11.3968C19.6084 11.4813 19.4976 11.5432 19.377 11.5775C19.2563 11.6118 19.1292 11.6176 19.0059 11.5943C18.8826 11.5711 18.7666 11.5195 18.6672 11.4437C18.5678 11.3678 18.4879 11.27 18.4339 11.158L18.7573 10.9428C18.7884 11.0066 18.8338 11.0625 18.8901 11.1063C18.9463 11.15 19.012 11.1805 19.082 11.1952C19.1521 11.21 19.2246 11.2087 19.294 11.1915C19.3635 11.1743 19.428 11.1415 19.4827 11.0958C19.7599 10.9131 19.7752 10.7181 19.6569 10.5436C19.2873 10.0038 18.4482 11.0789 17.9649 10.355C17.8904 10.2744 17.8361 10.1776 17.8065 10.0725C17.7768 9.96731 17.7727 9.85671 17.7943 9.74965C17.816 9.64259 17.8628 9.54208 17.931 9.45625C17.9993 9.37042 18.087 9.30169 18.1872 9.25562ZM15.8258 11.0145C15.9027 10.9301 15.9986 10.8645 16.1057 10.8231C16.2128 10.7817 16.3282 10.7655 16.4427 10.776C16.5573 10.7864 16.6678 10.8231 16.7654 10.8831C16.8631 10.9432 16.9452 11.0249 17.0053 11.1219C17.0821 11.1902 17.1416 11.2753 17.1791 11.3705C17.2165 11.4657 17.2308 11.5682 17.2209 11.6699C17.211 11.7715 17.1771 11.8694 17.1219 11.9557C17.0667 12.0421 16.9918 12.1144 16.9032 12.1669L18.1576 12.4323L17.7709 12.7406L16.5336 12.4149L17.1837 13.2083L16.8792 13.4472L15.257 11.4663L15.8258 11.0145ZM14.2738 12.3263L14.5275 12.5867L13.7758 13.3037L14.2697 13.8176L14.9539 13.1676L15.1956 13.4234L14.5113 14.0734L15.0454 14.6214L15.799 13.9025L16.0406 14.1629L15.0089 15.1462L13.2491 13.3065L14.2738 12.3263ZM11.7526 14.8905C11.8158 14.7916 11.902 14.709 12.0039 14.6496C12.1059 14.5902 12.2207 14.5557 12.3388 14.5489C12.457 14.5421 12.5751 14.5633 12.6833 14.6106C12.7915 14.6579 12.8868 14.7301 12.9612 14.821C13.0617 14.879 13.1464 14.9601 13.2082 15.0575C13.2701 15.1548 13.3071 15.2656 13.3162 15.3802C13.3253 15.4948 13.3061 15.6099 13.2604 15.7156C13.2147 15.8213 13.1437 15.9144 13.0536 15.9871L12.812 16.2644L13.4671 16.833L13.2084 17.1221L11.2748 15.4495L11.7526 14.8905ZM10.6746 26.9362L11.9683 32.4171L13.3147 26.9362H14.1098L15.4658 32.4171L16.7517 26.9362H17.4549L15.8738 33.3881H15.0593L13.6912 27.9469L12.3569 33.3881H11.5567L9.95435 26.9362H10.6746ZM19.1759 50.9394C19.1759 47.8665 19.9013 44.994 23.4446 44.994C26.4417 44.994 27.6578 47.0297 27.6578 49.5582H25.8355C25.7431 47.7769 24.9341 46.6479 23.445 46.6479C21.4944 46.6479 20.9797 48.4497 20.9797 50.949C20.9797 53.4483 21.4944 55.2502 23.445 55.2502C24.9697 55.2502 25.8189 54.1033 25.8355 52.3037H27.6582C27.6582 54.9588 26.4496 56.9036 23.445 56.9036C19.911 56.8876 19.1759 54.0151 19.1759 50.9399V50.9394ZM27.375 68.2733L26.9666 68.144L27.624 66.1394L26.3017 67.9353L25.8933 67.8038V65.5886L25.2465 67.5841L24.838 67.4525L25.7228 64.7641L26.3031 64.9505L26.286 67.3137L27.6721 65.3899L28.2547 65.5762L27.375 68.2733ZM31.2426 67.6759C31.0975 68.393 30.7834 69.0548 29.9083 68.8826C29.0332 68.7104 28.9898 67.9888 29.1349 67.2575C29.2799 66.5263 29.6181 65.8763 30.4747 66.0485C31.3313 66.2207 31.3932 66.9373 31.2435 67.6759H31.2426ZM34.5202 69.4467L34.0028 69.401L33.094 67.1716L32.9031 69.3055L32.4735 69.2681L32.7151 66.4532L33.2543 66.4989L34.1464 68.7068L34.335 66.5943L34.7628 66.6299L34.5202 69.4467ZM31.0393 51.6337V56.7615H29.2559V45.121H31.0412V50.0127H35.2738V45.121H37.0577V56.7606H35.2724V51.6328L31.0393 51.6337ZM36.9662 69.496H36.5393L36.5005 67.073H35.867V66.6715L37.559 66.645V67.0465H36.9232L36.9662 69.496ZM40.1957 69.3024L39.2532 68.2582L39.3646 69.3836L38.9321 69.4243L38.6549 66.6094L39.4597 66.5331C40.3274 66.4495 40.4554 67.0109 40.4873 67.3434C40.5147 67.453 40.516 67.5674 40.4912 67.6776C40.4663 67.7879 40.416 67.8909 40.3441 67.9786C40.2722 68.0664 40.1807 68.1365 40.0768 68.1834C39.9729 68.2303 39.8594 68.2528 39.7453 68.2491L40.7409 69.2503L40.1957 69.3024ZM45.1172 50.0232V51.6433H40.8052V55.1145H45.5719V56.7707H39.0453V45.1237H45.5719V46.7771H40.8052V50.015L45.1172 50.0232ZM42.1515 69.0397L41.6123 66.2632L43.1689 65.9667L43.246 66.3632L42.1099 66.5783L42.255 67.3452L43.2848 67.1493L43.3597 67.5366L42.3298 67.7325L42.492 68.5592L43.6281 68.3441L43.7053 68.7383L42.1515 69.0397ZM46.6063 67.9668L46.3065 67.4767L45.3201 67.7636V68.3372L44.8922 68.4615V65.5127L45.4383 65.3552L47.036 67.8403L46.6063 67.9668ZM48.2743 67.3959L47.2278 64.7673L47.6316 64.612L48.5404 66.8679L49.3258 66.5619L49.4732 66.9273L48.2743 67.3959ZM53.5002 46.7762H48.8883V50.0141H53.1763V51.6341H48.8883V56.762H47.1197V45.121H53.5058L53.5002 46.7762ZM8.60801 39.3861V38.9083H66.0484V39.3861H8.60801Z" fill="white"/>
<path d="M45.3182 67.3968L46.1184 67.1652L45.296 65.8311L45.3182 67.3968Z" fill="white"/>
</svg>
